<svg width="737.66564" height="594" xmlns="http://www.w3.org/2000/svg">

 <g>
  <title>background</title>
  <rect fill="none" id="canvas_background" height="602" width="802" y="-1" x="-1"/>
 </g>
 <g>
  <title>Layer 1</title>
  <path id="svg_1" fill="#3f3d56" d="m268.42621,450.57371a24.30012,24.30012 0 0 1 9.74324,-30.08516c1.64736,-1.00163 0.14149,-3.59709 -1.51416,-2.59041a27.0077,27.0077 0 0 0 -10.81947,34.18973c0.75686,1.76976 3.34195,0.24315 2.59041,-1.51416l-0.00002,0z"/>
  <path id="svg_2" fill="#3f3d56" d="m269.28437,454.60854c-4.04629,-7.16841 -3.0941,-15.747 -1.63872,-23.4989c1.51929,-8.09231 3.51088,-16.30868 1.78772,-24.539a22.527,22.527 0 0 0 -5.353,-10.73372c-1.31056,-1.42342 -3.42784,0.70229 -2.12132,2.12132c5.0888,5.527 5.67878,13.5448 4.85343,20.66543c-0.9735,8.39864 -3.73258,16.58266 -3.39006,25.117a27.20192,27.20192 0 0 0 3.27155,12.38207a1.50112,1.50112 0 0 0 2.59041,-1.51416l-0.00001,-0.00004z"/>
  <path id="svg_3" fill="#ccc" d="m291,477.5l-51,0a4.50508,4.50508 0 0 1 -4.5,-4.5l0,-14.98047a14.53617,14.53617 0 0 1 14.51982,-14.51953l7.48023,0a1.50164,1.50164 0 0 0 1.5,-1.5l0,-7a2.50294,2.50294 0 0 1 2.5,-2.5l8,0a2.50294,2.50294 0 0 1 2.5,2.5l0,7a1.50164,1.50164 0 0 0 1.5,1.5l7.48022,0a14.53618,14.53618 0 0 1 14.51978,14.51953l0,14.98047a4.50508,4.50508 0 0 1 -4.50005,4.5z"/>
  <path id="svg_4" fill="#5fbf00" d="m267.28387,387.53959c1.07377,5.69871 -0.25563,10.73293 -2.9693,11.24425s-5.784,-3.69389 -6.85778,-9.3926s2.22864,-15.17508 2.22864,-15.17508s6.52466,7.62472 7.59844,13.32343z"/>
  <path id="svg_5" fill="#5fbf00" d="m286.87742,414.052c-3.40041,4.69739 -7.97031,7.19273 -10.20717,5.57349s-1.2936,-6.73989 2.10681,-11.43729s12.55268,-8.81363 12.55268,-8.81363s-1.05192,9.98001 -4.45232,14.67743z"/>
  <path id="svg_6" fill="#3f3d56" d="m174.42621,90.57371a24.30012,24.30012 0 0 1 9.74324,-30.08516c1.64736,-1.00163 0.14149,-3.59709 -1.51416,-2.59041a27.0077,27.0077 0 0 0 -10.81947,34.18973c0.75686,1.76976 3.34195,0.24315 2.59041,-1.51416l-0.00002,0z"/>
  <path id="svg_7" fill="#3f3d56" d="m175.28437,94.60854c-4.04629,-7.16841 -3.0941,-15.747 -1.63872,-23.4989c1.51929,-8.09231 3.51088,-16.30868 1.78772,-24.539a22.527,22.527 0 0 0 -5.353,-10.73372c-1.31056,-1.42342 -3.42784,0.70229 -2.12132,2.12132c5.0888,5.527 5.67878,13.5448 4.85343,20.66543c-0.9735,8.39864 -3.73258,16.58266 -3.39006,25.117a27.20192,27.20192 0 0 0 3.27155,12.38207a1.50112,1.50112 0 0 0 2.59041,-1.51416l-0.00001,-0.00004z"/>
  <path id="svg_8" fill="#ccc" d="m197,117.5l-51,0a4.505,4.505 0 0 1 -4.5,-4.5l0,-14.98047a14.53623,14.53623 0 0 1 14.51965,-14.51953l7.48035,0a1.50164,1.50164 0 0 0 1.5,-1.5l0,-7a2.50286,2.50286 0 0 1 2.5,-2.5l8,0a2.50286,2.50286 0 0 1 2.5,2.5l0,7a1.50164,1.50164 0 0 0 1.5,1.5l7.48035,0a14.53623,14.53623 0 0 1 14.51965,14.51953l0,14.98047a4.505,4.505 0 0 1 -4.5,4.5z"/>
  <path id="svg_9" fill="#5fbf00" d="m173.28387,27.53959c1.07377,5.69871 -0.25563,10.73293 -2.9693,11.24425s-5.784,-3.69389 -6.85778,-9.3926s2.22864,-15.17508 2.22864,-15.17508s6.52466,7.62472 7.59844,13.32343z"/>
  <path id="svg_10" fill="#5fbf00" d="m193.87742,54.052c-3.40041,4.69739 -7.97031,7.19273 -10.20717,5.57349s-1.2936,-6.73989 2.10681,-11.43729s12.55268,-8.81363 12.55268,-8.81363s-1.05192,9.98001 -4.45232,14.67743z"/>
  <rect id="svg_11" fill="#fff963" height="15" width="41" y="272" x="32"/>
  <rect id="svg_12" fill="#fff963" height="15" width="41" y="321" x="32"/>
  <path id="svg_13" fill="#3f3d56" d="m323,593l-306,0a17.01909,17.01909 0 0 1 -17,-17l0,-559a17.01909,17.01909 0 0 1 17,-17l306,0a17.01917,17.01917 0 0 1 17,17l0,559a17.01917,17.01917 0 0 1 -17,17zm-306,-591a15.017,15.017 0 0 0 -15,15l0,559a15.017,15.017 0 0 0 15,15l306,0a15.017,15.017 0 0 0 15,-15l0,-559a15.017,15.017 0 0 0 -15,-15l-306,0z"/>
  <rect id="svg_14" fill="#3f3d56" height="2" width="338" y="115.45264" x="1"/>
  <rect id="svg_15" fill="#3f3d56" height="2" width="338" y="235.48438" x="1"/>
  <rect id="svg_16" fill="#3f3d56" height="2" width="338" y="355.51563" x="1"/>
  <rect id="svg_17" fill="#3f3d56" height="2" width="338" y="475.54736" x="1"/>
  <path id="svg_18" fill="#3f3d56" d="m70,358l-34,0a5.0058,5.0058 0 0 1 -5,-5l0,-97a5.0058,5.0058 0 0 1 5,-5l34,0a5.0058,5.0058 0 0 1 5,5l0,97a5.0058,5.0058 0 0 1 -5,5zm-34,-105a3.00335,3.00335 0 0 0 -3,3l0,97a3.00335,3.00335 0 0 0 3,3l34,0a3.00336,3.00336 0 0 0 3,-3l0,-97a3.00336,3.00336 0 0 0 -3,-3l-34,0z"/>
  <rect id="svg_19" fill="#5fbf00" height="15" width="41" y="271" x="96"/>
  <rect id="svg_20" fill="#5fbf00" height="15" width="41" y="320" x="95"/>
  <path id="svg_21" fill="#3f3d56" d="m133,358l-34,0a5.0058,5.0058 0 0 1 -5,-5l0,-97a5.0058,5.0058 0 0 1 5,-5l34,0a5.0058,5.0058 0 0 1 5,5l0,97a5.0058,5.0058 0 0 1 -5,5zm-34,-105a3.00335,3.00335 0 0 0 -3,3l0,97a3.00335,3.00335 0 0 0 3,3l34,0a3.00336,3.00336 0 0 0 3,-3l0,-97a3.00336,3.00336 0 0 0 -3,-3l-34,0z"/>
  <rect id="svg_22" fill="#ff7f00" height="15" width="41" y="150" x="195"/>
  <rect id="svg_23" fill="#ff7f00" height="15" width="41" y="199" x="195"/>
  <path id="svg_24" fill="#3f3d56" d="m233,237l-34,0a5.0058,5.0058 0 0 1 -5,-5l0,-97a5.0058,5.0058 0 0 1 5,-5l34,0a5.00573,5.00573 0 0 1 5,5l0,97a5.00573,5.00573 0 0 1 -5,5zm-34,-105a3.00335,3.00335 0 0 0 -3,3l0,97a3.00335,3.00335 0 0 0 3,3l34,0a3.00328,3.00328 0 0 0 3,-3l0,-97a3.00328,3.00328 0 0 0 -3,-3l-34,0z"/>
  <rect id="svg_25" fill="#ff56ff" height="15" width="41" y="151" x="258"/>
  <rect id="svg_26" fill="#ff56ff" height="15" width="41" y="200" x="258"/>
  <path id="svg_27" fill="#3f3d56" d="m296,237l-34,0a5.00573,5.00573 0 0 1 -5,-5l0,-97a5.00573,5.00573 0 0 1 5,-5l34,0a5.00573,5.00573 0 0 1 5,5l0,97a5.00573,5.00573 0 0 1 -5,5zm-34,-105a3.00328,3.00328 0 0 0 -3,3l0,97a3.00328,3.00328 0 0 0 3,3l34,0a3.00328,3.00328 0 0 0 3,-3l0,-97a3.00328,3.00328 0 0 0 -3,-3l-34,0z"/>
  <rect id="svg_28" fill="#6c63ff" transform="rotate(-20.594680786132812 -356.89697265625006,15.518159866333008) " height="15" width="41" y="438.29173" x="23.50829"/>
  <rect id="svg_29" fill="#6c63ff" transform="rotate(-20.594680786132812 -371.92993164062506,24.512359619140508) " height="15" width="41" y="493.15445" x="25.71132"/>
  <path id="svg_30" fill="#3f3d56" d="m180.14392,356.88281a5.009,5.009 0 0 1 -4.67786,-3.24414l-34.12024,-90.80078a5.00607,5.00607 0 0 1 2.92151,-6.439l31.82739,-11.95948a4.99925,4.99925 0 0 1 6.43921,2.92188l34.12024,90.80078a5.00606,5.00606 0 0 1 -2.92151,6.439l-0.00012,0l-31.82727,11.95948a4.99586,4.99586 0 0 1 -1.76135,0.32226zm-2.2887,-110.76465a3.00572,3.00572 0 0 0 -1.057,0.19336l-31.82715,11.95948a3.00388,3.00388 0 0 0 -1.75305,3.86377l34.12024,90.80078a2.99969,2.99969 0 0 0 3.86352,1.75293l31.82715,-11.95948a3.00388,3.00388 0 0 0 1.75305,-3.86377l-34.12024,-90.80078a3.00565,3.00565 0 0 0 -2.80652,-1.94629z"/>
  <rect id="svg_31" fill="#6c63ff" transform="rotate(-20.594680786132812 -323.857421875,-40.629020690917905) " height="15" width="41" y="263.14455" x="-81.45216"/>
  <rect id="svg_32" fill="#6c63ff" transform="rotate(-20.594680786132812 -338.89038085937494,-31.634830474853505) " height="15" width="41" y="318.00726" x="-79.24913"/>
  <path id="svg_33" fill="#3f3d56" d="m42.14392,237.88281a5.009,5.009 0 0 1 -4.67786,-3.24414l-34.12024,-90.80078a5.00607,5.00607 0 0 1 2.92151,-6.439l31.82739,-11.95948a4.99925,4.99925 0 0 1 6.43921,2.92188l34.12024,90.80078a5.00606,5.00606 0 0 1 -2.92151,6.439l-0.00012,0l-31.82727,11.95948a4.99586,4.99586 0 0 1 -1.76135,0.32226zm-2.2887,-110.76465a3.00572,3.00572 0 0 0 -1.057,0.19336l-31.82715,11.95948a3.00388,3.00388 0 0 0 -1.75305,3.86377l34.12024,90.80078a2.99969,2.99969 0 0 0 3.86352,1.75293l31.82715,-11.95948a3.00388,3.00388 0 0 0 1.75305,-3.86377l-34.12024,-90.80078a3.00565,3.00565 0 0 0 -2.80652,-1.94629z"/>
  <circle id="svg_34" fill="#2f2e41" r="31" cy="219" cx="627"/>
  <path id="svg_35" fill="#ffb8b8" d="m489.28033,360.47105a10.74273,10.74273 0 0 0 14.42391,-7.956l85.23707,-53.77848l-15.51422,-17.467l-78.94343,58.39088a10.80091,10.80091 0 0 0 -5.20333,20.81064l0,-0.00004z"/>
  <path id="svg_36" fill="#00a9ff" d="m571.14624,313.03418a4.50412,4.50412 0 0 1 -3.79321,-2.06348l-9.87061,-15.33886a4.5006,4.5006 0 0 1 1.14819,-6.082l33.03,-23.873a14.78876,14.78876 0 1 1 16.62964,24.44531l-34.72925,22.20508a4.46628,4.46628 0 0 1 -2.41476,0.70695z"/>
  <polygon id="svg_37" fill="#ffb8b8" points="585.894 580.85 573.635 580.849 567.802 533.561 585.897 533.562 585.894 580.85"/>
  <path id="svg_38" fill="#2f2e41" d="m564.8774,577.34625l23.64387,0a0,0 0 0 1 0,0l0,14.88687a0,0 0 0 1 0,0l-38.53073,0a0,0 0 0 1 0,0l0,0a14.88686,14.88686 0 0 1 14.88686,-14.88687z"/>
  <polygon id="svg_39" fill="#ffb8b8" points="643.128 571.684 631.324 574.998 612.926 531.047 630.347 526.156 643.128 571.684"/>
  <path id="svg_40" fill="#2f2e41" transform="rotate(-15.680370330810547 -397.28784179687506,106.53262329101551) " d="m457.67462,832.06413l23.64387,0a0,0 0 0 1 0,0l0,14.88687a0,0 0 0 1 0,0l-38.53073,0a0,0 0 0 1 0,0l0,0a14.88686,14.88686 0 0 1 14.88686,-14.88687z"/>
  <path id="svg_41" fill="#fc2828" d="m677.15991,499.11328l-47.596,-56.1709l28.88135,-35.04394a4.49962,4.49962 0 0 1 6.96118,0.02051l43.70166,53.63378l-31.94819,37.56055z"/>
  <path id="svg_42" fill="#f2f2f2" d="m630.48422,443.36047l0,0a15.94248,15.94248 0 0 1 2.58625,-3.45319l27.56723,-27.94751a6.13368,6.13368 0 0 1 4.0758,-1.83c3.14992,-0.14873 8.31574,0.16954 9.75565,3.62537l-37.218,30.45111l-6.76693,-0.84578z"/>
  <path id="svg_43" fill="#fc2828" d="m677.81396,510.999a11.4306,11.4306 0 0 1 -5.95776,-1.88672l-0.13159,-0.13574l-43.59155,-66.66894l7.23339,-0.69922l38.76661,-30.23828a4.50045,4.50045 0 0 1 6.52221,1.06738l42.37622,64.1377a4.51307,4.51307 0 0 1 -1.238,6.21093l-41.00611,27.65039a7.94866,7.94866 0 0 1 -2.97342,0.5625z"/>
  <path id="svg_44" fill="#3f3d56" d="m662.39673,465.39355a2.49929,2.49929 0 0 1 -2.0774,-1.10253l-5.00781,-7.43848a2.50383,2.50383 0 0 1 0.67774,-3.4707l25.69116,-17.2959a2.505,2.505 0 0 1 3.47021,0.67773l5.00757,7.43848a2.50383,2.50383 0 0 1 -0.67773,3.4707l-25.69116,17.2959a2.49073,2.49073 0 0 1 -1.39258,0.4248z"/>
  <path id="svg_45" fill="#2f2e41" d="m565.8623,573.69824a5.47917,5.47917 0 0 1 -5.43872,-5.0039c-2.18188,-24.78516 -13.12671,-149.7002 -14.32812,-174.92676c-1.33448,-28.0293 21.99267,-72.3711 22.22851,-72.81543l0.16138,-0.30469l11.52979,1.44043l0,1.34082l10.97436,1.291l21.23828,2.05566l6.08032,74.31836l2.68848,50.40234l25.25924,102.94338a4.476,4.476 0 0 1 -3.18628,5.41407l-21.9834,5.99511a4.51906,4.51906 0 0 1 -5.51221,-3.10937l-20.69751,-72.707a1.5,1.5 0 0 0 -2.94189,0.457l2.189,70.89551a5.34339,5.34339 0 0 1 -1.61718,3.91211c-5.03907,4.73242 -18.35352,7.25878 -25.84131,8.34375a5.5788,5.5788 0 0 1 -0.80274,0.05761z"/>
  <path id="svg_46" fill="#ff7900" d="m631.91846,261.39249c-3.48829,-3.63648 -26.47315,1.36093 -31.57618,6.71838l-34.93575,57.10624l57.77809,10.74941l12.76493,-72.55852l-4.03109,-2.01551z"/>
  <path id="svg_47" fill="#00a9ff" d="m616.77441,406.47949a11.248,11.248 0 0 1 -3.65747,-0.60937c-3.35669,-1.15137 -7.4707,-2.35645 -12.22754,-3.5791c-20.83374,-5.35743 -28.18945,-22.50977 -21.8623,-50.98047l0.15991,-0.72266a210.7341,210.7341 0 0 1 32.95681,-75.26269l2.45,-3.51954a26.398,26.398 0 0 1 27.04492,-10.75586c9.37427,1.9336 14.40747,4.73536 14.96021,8.32813c1.08471,7.0498 -19.854,92.26953 -28.90674,128.582a11.23544,11.23544 0 0 1 -10.91773,8.51953l-0.00007,0.00003z"/>
  <path id="svg_48" fill="#00a9ff" d="m545.0039,394.53906a5.283,5.283 0 0 1 -1.60522,-0.25l-6.75269,-2.16015a5.26875,5.26875 0 0 1 -3.24047,-7.082l35.8313,-84.10355a78.69258,78.69258 0 0 1 34.12354,-37.82715l0.00024,0a1.84145,1.84145 0 0 1 1.46143,-0.13672a1.6571,1.6571 0 0 1 1.00488,0.8916c4.21411,9.27051 -18.72241,53.14356 -37.15234,88.39551c-9.43726,18.05078 -17.5874,33.64063 -18.51514,38.08594a5.26334,5.26334 0 0 1 -5.15552,4.18652l-0.00001,0z"/>
  <path id="svg_49" fill="#ffb8b8" d="m655.85882,414.70345a10.74266,10.74266 0 0 0 0.92142,-16.44683l-0.28478,-100.78395l-23.04006,3.86569l7.53584,97.90185a10.8009,10.8009 0 0 0 14.86758,15.46324z"/>
  <path id="svg_50" fill="#00a9ff" d="m637.09912,322.47656a4.49932,4.49932 0 0 1 -4.48853,-4.20312l-2.68017,-40.666a14.80742,14.80742 0 0 1 13.7844,-15.73044a14.78957,14.78957 0 0 1 15.761,14.626l0.364,41.21973a4.50852,4.50852 0 0 1 -4.44678,4.54l-18.23925,0.21386l-0.05467,-0.00003z"/>
  <circle id="svg_51" fill="#ffb8b8" r="24.56103" cy="227.01575" cx="620.61417"/>
  <path id="svg_52" fill="#2f2e41" d="m641.03562,244.202c1.83183,-5.82965 3.51355,-12.70329 -0.11157,-17.62253c-2.61207,-3.54455 -7.30192,-4.91657 -11.70057,-5.113s-8.80988,0.54917 -13.19907,0.20024s-9.028,-2.08127 -11.25764,-5.878c-2.89119,-4.92317 -0.44247,-11.70412 4.20553,-15.01964s10.78836,-3.77847 16.44523,-3.0062a35.47655,35.47655 0 0 1 19.29228,8.62983c5.2582,4.85294 8.68542,11.84811 8.53273,19.00188s-4.1649,14.27774 -10.5589,17.48967"/>
  <path id="svg_53" fill="#2f2e41" d="m634.91163,190.53408c-5.87973,-1.81115 -8.59177,-9.58474 -5.96235,-15.14691s9.35073,-8.4748 15.45411,-7.70005s11.48144,4.69043 15.191,9.59865s5.9468,10.759 7.81178,16.62189s3.416,11.85261 5.96329,17.45286a54.16842,54.16842 0 0 0 44.45006,30.94259c4.129,0.29914 8.41394,0.08482 12.17689,-1.64105s6.9186,-5.20542 7.34024,-9.32376c2.14172,14.629 -6.36878,30.17609 -19.84618,36.25519s-30.76454,2.16827 -40.313,-9.11989c-9.33112,-11.03123 -10.77627,-26.60551 -10.55183,-41.05222c0.06155,-3.96158 0.20762,-7.998 -0.88686,-11.80587s-3.68466,-7.4286 -7.45762,-8.638c-3.04412,-0.97577 -6.34107,-0.27238 -9.462,0.41942s-6.43481,1.35765 -9.4566,0.31479s-5.45494,-4.4792 -4.23735,-7.43492"/>
  <path id="svg_54" fill="#ccc" d="m732.08268,594l-264,0a1,1 0 1 1 0,-2l264,0a1,1 0 0 1 0,2z"/>
 </g>
</svg>